<?xml version="1.0" standalone="no"?>
<!DOCTYPE svg PUBLIC "-//W3C//DTD SVG 20010904//EN"
 "http://www.w3.org/TR/2001/REC-SVG-20010904/DTD/svg10.dtd">
<svg version="1.0" xmlns="http://www.w3.org/2000/svg"
 width="260.000000pt" height="260.000000pt" viewBox="0 0 260.000000 260.000000"
 preserveAspectRatio="xMidYMid meet">
<metadata>
Created by potrace 1.11, written by Peter Selinger 2001-2013
</metadata>
<g transform="translate(0.000000,260.000000) scale(0.100000,-0.100000)"
fill="#000000" stroke="none">
<path d="M480 1875 l0 -95 105 0 105 0 0 -570 0 -570 105 0 105 0 2 568 3 567
108 3 107 3 0 94 0 95 -320 0 -320 0 0 -95z"/>
<path d="M1250 1305 l0 -665 90 0 90 0 1 448 1 447 76 -448 75 -448 101 3 101
3 66 435 c37 239 69 444 72 455 2 11 5 -186 6 -437 l1 -458 100 0 100 0 0 665
0 666 -147 -3 -148 -3 -26 -170 c-14 -93 -45 -299 -69 -457 -24 -158 -45 -286
-47 -284 -4 3 -25 128 -98 581 -25 154 -48 292 -51 308 l-6 27 -144 0 -144 0
0 -665z"/>
</g>
</svg>
