<svg xmlns="http://www.w3.org/2000/svg" width="24" height="24" viewBox="0 0 24 24"><g id="Layer_2"><path fill="#FFF" d="M0 0h24v24H0z"/></g><g id="Layer_1"><g id="Layer_1_1_"><title>LinkedIn icon</title><path fill="#343434" d="M20.447 20.452h-3.555v-5.569c0-1.328-.026-3.037-1.853-3.037-1.854 0-2.138 1.445-2.138 2.939v5.667h-3.55V9h3.415v1.561h.045c.479-.9 1.639-1.85 3.371-1.85 3.602 0 4.268 2.37 4.268 5.455l-.003 6.286zM5.337 7.433a2.062 2.062 0 0 1-2.063-2.061v-.004a2.064 2.064 0 1 1 2.063 2.065zm1.782 13.019H3.555V9h3.564v11.452z"/></g></g></svg>