<svg xmlns="http://www.w3.org/2000/svg" width="24" height="24" viewBox="0 0 24 24"><g id="Layer_4"><path fill="#FFF" d="M0 0h24v24H0z"/></g><g id="Layer_3_copy"><g><g id="XMLID_1_"><g><path fill="#343434" d="M20.17 6.62V17.5l-5.67-5.44zM19.86 17.79H4.24l5.68-5.43 1.52 1.45c.18.16.38.25.62.25.23 0 .44-.09.6-.25l1.53-1.45 5.67 5.43zM9.62 12.06L3.94 17.5V6.62z"/><path fill="#343434" d="M19.87 6.33l-7.51 7.2c-.08.08-.18.12-.3.12s-.23-.04-.31-.12l-7.51-7.2h15.63z"/><path fill="#FFF" d="M9.62 12.06L3.94 6.62V17.5l5.68-5.44zm10.24 5.73l-5.67-5.43-1.53 1.45a.84.84 0 0 1-.6.25c-.24 0-.44-.09-.62-.25l-1.52-1.45-5.68 5.43h15.62zm-7.5-4.26l7.51-7.2H4.24l7.51 7.2c.08.08.19.12.31.12s.22-.04.3-.12zm7.81 3.97V6.62l-5.67 5.44 5.67 5.44zm.42-11.58v12.27H3.52V5.92h17.07z"/></g></g></g></g></svg>